<?xml version="1.0" encoding="UTF-8"?>
<svg version="1.1" xmlns="http://www.w3.org/2000/svg" width="500" height="500">
<path d="M0 0 C165 0 330 0 500 0 C500 165 500 330 500 500 C335 500 170 500 0 500 C0 335 0 170 0 0 Z " fill="#000000" transform="translate(0,0)"/>
<path d="M0 0 C0.99 0 1.98 0 3 0 C1.62419719 6.36829936 0.16901934 12.66513396 -1.8125 18.875 C-3.74724866 24.96724292 -5.35368134 31.12047776 -6.9375 37.3125 C-9.32978625 46.64645044 -11.99713289 55.84524142 -15 65 C-13.89591797 64.7834375 -13.89591797 64.7834375 -12.76953125 64.5625 C-11.30580078 64.2840625 -11.30580078 64.2840625 -9.8125 64 C-8.84957031 63.814375 -7.88664062 63.62875 -6.89453125 63.4375 C-4.2065794 63.03122388 -1.71228981 62.92066428 1 63 C1.20496094 62.15695312 1.40992188 61.31390625 1.62109375 60.4453125 C1.89050781 59.34960938 2.15992188 58.25390625 2.4375 57.125 C2.70433594 56.03445313 2.97117187 54.94390625 3.24609375 53.8203125 C4 51 4 51 5 49 C5.66 49 6.32 49 7 49 C7.23105587 53.73664532 6.36525145 57.47962021 5 62 C6.28632324 61.81824219 6.28632324 61.81824219 7.59863281 61.6328125 C10.78892207 61.18335425 13.97954402 60.73635844 17.17041016 60.29101562 C18.54977983 60.09798808 19.92901372 59.90398762 21.30810547 59.70898438 C23.29358281 59.42841223 25.27959881 59.15166036 27.265625 58.875 C29.05661621 58.62363281 29.05661621 58.62363281 30.88378906 58.3671875 C34 58 34 58 38 58 C38.12117187 57.33613281 38.24234375 56.67226563 38.3671875 55.98828125 C39.22547708 51.46575541 40.03971311 47.20061476 42 43 C42.66 43 43.32 43 44 43 C44.30328934 48.00816238 43.22547751 52.08633306 41.5625 56.75 C41.33240234 57.42160156 41.10230469 58.09320313 40.86523438 58.78515625 C40.01240782 61.25217335 39.16862988 63.66274024 38 66 C38.7425 65.319375 39.485 64.63875 40.25 63.9375 C43 62 43 62 45.3125 62.25 C45.869375 62.4975 46.42625 62.745 47 63 C47 65.31 47 67.62 47 70 C48.99863756 69.42055068 48.99863756 69.42055068 51 68 C52.29231642 64.95800528 52.29231642 64.95800528 53 62 C53.66 62 54.32 62 55 62 C54.67 64.97 54.34 67.94 54 71 C55.23121385 69.93987294 56.45985685 68.87675995 57.6875 67.8125 C58.4196875 67.17957031 59.151875 66.54664063 59.90625 65.89453125 C61.63442596 64.33078994 63.15325457 62.74569592 64.6875 61 C67 59 67 59 69.8125 59.1875 C70.534375 59.455625 71.25625 59.72375 72 60 C72 60.66 72 61.32 72 62 C71.236875 62.0825 70.47375 62.165 69.6875 62.25 C66.47626739 63.14615794 65.70625501 64.21611025 64 67 C64.33 67.33 64.66 67.66 65 68 C65.598125 67.175 66.19625 66.35 66.8125 65.5 C67.534375 64.675 68.25625 63.85 69 63 C69.99 63 70.98 63 72 63 C72 64.65 72 66.3 72 68 C74.30099489 65.85769441 76.01742088 63.97051851 77.625 61.25 C78.07875 60.5075 78.5325 59.765 79 59 C79.66 59 80.32 59 81 59 C81 59.66 81 60.32 81 61 C81.99 60.34 82.98 59.68 84 59 C85.32 59 86.64 59 88 59 C88.33 60.65 88.66 62.3 89 64 C92.83419362 61.62015568 94.04932093 58.98617027 96 55 C98.90092502 53.06604999 99.89674737 52.69868059 103.1875 52.375 C105.0746875 52.189375 105.0746875 52.189375 107 52 C106.67 54.97 106.34 57.94 106 61 C106.94875 60.34 107.8975 59.68 108.875 59 C112 57 112 57 114 57 C114.33 56.01 114.66 55.02 115 54 C115.66 54 116.32 54 117 54 C117 55.98 117 57.96 117 60 C120.67532994 57.31800248 122.73669076 54.90935232 125 51 C128 49 128 49 130.56787109 48.65234375 C133.14693634 48.2622584 133.14693634 48.2622584 134.16259766 46.06640625 C134.41058105 45.24011719 134.65856445 44.41382813 134.9140625 43.5625 C135.20023438 42.66789062 135.48640625 41.77328125 135.78125 40.8515625 C136.0596875 39.91054687 136.338125 38.96953125 136.625 38 C137.18986547 36.14255949 137.76489479 34.28816995 138.3515625 32.4375 C138.72015381 31.19806641 138.72015381 31.19806641 139.09619141 29.93359375 C139.39444824 29.29550781 139.69270508 28.65742188 140 28 C140.99 27.67 141.98 27.34 143 27 C142.52073327 33.70973424 141.11410092 39.93936497 139.37207031 46.4140625 C138.48357051 49.77242874 138 52.49371723 138 56 C139.32 54.68 140.64 53.36 142 52 C142.66 52.33 143.32 52.66 144 53 C142.35 54.98 140.7 56.96 139 59 C137.35 58.67 135.7 58.34 134 58 C133.67 57.01 133.34 56.02 133 55 C132.46375 55.969375 131.9275 56.93875 131.375 57.9375 C129 61 129 61 125.9375 61.875 C123.95968466 61.95916235 121.97960521 62 120 62 C117.66435067 62.31669821 115.3306218 62.64820803 113 63 C112.67 62.01 112.34 61.02 112 60 C107.69113939 62.2414263 104.59479941 64.3077847 102.94140625 69.01171875 C102.47727772 71.26942871 102.04008549 73.53283037 101.62890625 75.80078125 C100.50523383 81.51685399 98.58898393 85.48668197 94.375 89.5 C89.94786647 91.4676149 85.78199808 91.91360032 81 91 C79.19921875 89.5859375 79.19921875 89.5859375 78 88 C78 83.83331273 81.29856685 80.8792501 84 78 C86.28879623 75.94536112 88.68566542 74.05936833 91.125 72.1875 C91.74503906 71.69830078 92.36507812 71.20910156 93.00390625 70.70507812 C95.64353786 68.65297742 97.80522034 67.06492655 101 66 C101 65.34 101 64.68 101 64 C97.13670528 64.38632947 94.24490029 64.87754985 90.75 66.625 C89.38875 67.305625 89.38875 67.305625 88 68 C87.01 67.67 86.02 67.34 85 67 C85 65.35 85 63.7 85 62 C84.236875 62.763125 83.47375 63.52625 82.6875 64.3125 C81.800625 65.199375 80.91375 66.08625 80 67 C79.54625 67.598125 79.0925 68.19625 78.625 68.8125 C75.94192003 70.77321228 73.21087876 70.17201136 70 70 C69.01 70 68.02 70 67 70 C66.34 70.66 65.68 71.32 65 72 C62.5 71.625 62.5 71.625 60 71 C57.71389981 70.78668394 57.71389981 70.78668394 55.5 73.08203125 C52.70571108 76.34349034 51.96627939 78.53900245 51 82.6875 C49.14012734 89.79833844 47.19060779 96.80939221 41.875 102.125 C36.78579561 103.67388829 30.92980885 104.29157604 25.953125 102.09765625 C24.3125 101 24.3125 101 22 99 C22.30607773 95.80566154 22.71723427 94.30154092 24.94140625 91.9296875 C25.80636719 91.25164062 26.67132813 90.57359375 27.5625 89.875 C29.03009766 88.72257812 29.03009766 88.72257812 30.52734375 87.546875 C35.1515072 84.09409356 39.94812148 80.87278176 44.77954102 77.71826172 C48.8503847 75.15665723 48.8503847 75.15665723 51 71 C50.01 71.66 49.02 72.32 48 73 C45.8125 72.625 45.8125 72.625 44 72 C43.67 70.02 43.34 68.04 43 66 C42.0406581 67.27007214 41.08256706 68.54108919 40.125 69.8125 C39.59132812 70.52019531 39.05765625 71.22789062 38.5078125 71.95703125 C37.29185219 73.60456297 36.13583859 75.29624211 35 77 C34.34 77 33.68 77 33 77 C33 75.35 33 73.7 33 72 C32.01 72.495 32.01 72.495 31 73 C31.185625 74.60875 31.185625 74.60875 31.375 76.25 C31 80 31 80 28.3125 82.5 C24.80783687 84.08701727 23.55471496 84.25460528 20 83 C20 81.68 20 80.36 20 79 C19.2575 79 18.515 79 17.75 79 C10.5 79 10.5 79 7 78 C6.67 76.02 6.34 74.04 6 72 C5.0406581 73.27007214 4.08256706 74.54108919 3.125 75.8125 C2.32449219 76.87404297 2.32449219 76.87404297 1.5078125 77.95703125 C0.29185219 79.60456297 -0.86416141 81.29624211 -2 83 C-2.66 83 -3.32 83 -4 83 C-4 81.35 -4 79.7 -4 78 C-4.99 78.495 -4.99 78.495 -6 79 C-6 81.64 -6 84.28 -6 87 C-11.29230769 90.07692308 -11.29230769 90.07692308 -14.875 89.6875 C-15.57625 89.460625 -16.2775 89.23375 -17 89 C-16.61650903 85.64445399 -16.16918447 84.18908853 -13.875 81.625 C-11.58654304 79.03220019 -11.58654304 79.03220019 -12.375 75.3125 C-12.684375 73.6728125 -12.684375 73.6728125 -13 72 C-12.34 71.34 -11.68 70.68 -11 70 C-8.875 70.375 -8.875 70.375 -7 71 C-7 71.66 -7 72.32 -7 73 C-8.98 72.505 -8.98 72.505 -11 72 C-10.34 73.65 -9.68 75.3 -9 77 C-5.535 76.01 -5.535 76.01 -2 75 C-1.34 71.7 -0.68 68.4 0 65 C-2.11588542 65.52083333 -4.23177083 66.04166667 -6.34765625 66.5625 C-9.5920257 67.09765372 -12.71782852 67.06427753 -16 67 C-16.20496094 68.10859375 -16.40992188 69.2171875 -16.62109375 70.359375 C-16.89316462 71.82292867 -17.16530362 73.28646967 -17.4375 74.75 C-17.57220703 75.47960937 -17.70691406 76.20921875 -17.84570312 76.9609375 C-18.90587505 82.64966489 -18.90587505 82.64966489 -19.54101562 85.01367188 C-20.28296999 88.2245978 -20.10276246 91.47325536 -20.0625 94.75 C-20.05798828 95.44738281 -20.05347656 96.14476562 -20.04882812 96.86328125 C-20.0371002 98.57555803 -20.01916653 100.28779033 -20 102 C-21.98 101.01 -21.98 101.01 -24 100 C-24.66576476 89.3662573 -22.73779903 80.20563476 -20 70 C-22.31 70 -24.62 70 -27 70 C-27.61746094 71.16015625 -28.23492187 72.3203125 -28.87109375 73.515625 C-33.95190739 82.94087316 -39.12856429 91.74737118 -46 100 C-46.41330566 100.50225098 -46.82661133 101.00450195 -47.25244141 101.52197266 C-56.35151308 112.45523102 -68.3878718 123.75270911 -83.16748047 125.21435547 C-93.43853781 125.88762674 -103.47922235 126.10551759 -111.92578125 119.4921875 C-115.04331414 116.41048832 -116.38792809 113.83814738 -116.625 109.4375 C-116.05988589 102.17701218 -111.45866533 98.28096636 -106.24316406 93.77441406 C-102.76677125 91.02447687 -99.06056534 88.9557492 -95.125 86.9375 C-94.30056396 86.51122314 -93.47612793 86.08494629 -92.62670898 85.64575195 C-81.22000282 79.91466253 -69.25675908 76.49033035 -56.9375 73.3125 C-56.1021875 73.08860596 -55.266875 72.86471191 -54.40625 72.6340332 C-50.32217287 71.59512223 -46.63750137 70.89322711 -42.4140625 70.97265625 C-37.78558037 70.96136477 -33.87528693 70.73918663 -30 68 C-24.24742799 60.76796818 -21.1910345 51.6544168 -17.84490967 43.1239624 C-16.34707248 39.35864879 -14.76396602 35.62909917 -13.19140625 31.89453125 C-10.20797634 24.78215212 -7.29253357 17.64491857 -4.41943359 10.48730469 C-2.98839717 6.97149384 -1.50577145 3.48429159 0 0 Z " fill="#E6E6E6" transform="translate(216,204)"/>
<path d="M0 0 C-8.86997113 20.19085534 -23.55152377 40.6667754 -44.07421875 49.8984375 C-52.36039772 53.01820048 -62.6420317 53.57664269 -71.19921875 51.05859375 C-75.71232865 48.90660263 -79.67009292 46.55390928 -82 42 C-82.58519656 37.39157707 -82.52665947 35.12201365 -80.5625 30.9375 C-63.80247806 11.72479193 -24.7450997 -0.6214159 0 0 Z " fill="#020202" transform="translate(185,275)"/>
<path d="M0 0 C0.99 0 1.98 0 3 0 C1.62419719 6.36829936 0.16901934 12.66513396 -1.8125 18.875 C-3.74724866 24.96724292 -5.35368134 31.12047776 -6.9375 37.3125 C-9.32978625 46.64645044 -11.99713289 55.84524142 -15 65 C-13.89591797 64.7834375 -13.89591797 64.7834375 -12.76953125 64.5625 C-11.30580078 64.2840625 -11.30580078 64.2840625 -9.8125 64 C-8.84957031 63.814375 -7.88664062 63.62875 -6.89453125 63.4375 C-4.2065794 63.03122388 -1.71228981 62.92066428 1 63 C1.20496094 62.15695312 1.40992188 61.31390625 1.62109375 60.4453125 C1.89050781 59.34960938 2.15992188 58.25390625 2.4375 57.125 C2.70433594 56.03445313 2.97117187 54.94390625 3.24609375 53.8203125 C4 51 4 51 5 49 C5.66 49 6.32 49 7 49 C7.23105587 53.73664532 6.36525145 57.47962021 5 62 C6.28632324 61.81824219 6.28632324 61.81824219 7.59863281 61.6328125 C10.78892207 61.18335425 13.97954402 60.73635844 17.17041016 60.29101562 C18.54977983 60.09798808 19.92901372 59.90398762 21.30810547 59.70898438 C23.29358281 59.42841223 25.27959881 59.15166036 27.265625 58.875 C29.05661621 58.62363281 29.05661621 58.62363281 30.88378906 58.3671875 C34 58 34 58 38 58 C38.12117187 57.33613281 38.24234375 56.67226563 38.3671875 55.98828125 C39.22547708 51.46575541 40.03971311 47.20061476 42 43 C42.66 43 43.32 43 44 43 C44.28693795 47.9865163 43.27891741 52.13856634 41.6875 56.8125 C41.47416016 57.49248047 41.26082031 58.17246094 41.04101562 58.87304688 C40.38671875 60.83203125 40.38671875 60.83203125 39 64 C38.01 64.33 37.02 64.66 36 65 C36.33 63.35 36.66 61.7 37 60 C29.08 60.99 29.08 60.99 21 62 C20.67 63.65 20.34 65.3 20 67 C19.34 67 18.68 67 18 67 C18.33 65.35 18.66 63.7 19 62 C16.55193908 62.31617023 14.12446529 62.67536043 11.6875 63.0625 C10.65206055 63.18915039 10.65206055 63.18915039 9.59570312 63.31835938 C7.26689389 63.64627877 7.26689389 63.64627877 4 65 C2.42164145 67.31023437 1.82176356 69.27653073 1 72 C1.7425 71.319375 2.485 70.63875 3.25 69.9375 C6 68 6 68 8.3125 68.25 C8.869375 68.4975 9.42625 68.745 10 69 C10 71.31 10 73.62 10 76 C14.06024321 73.96197865 14.06024321 73.96197865 16 70 C16.66 70 17.32 70 18 70 C17.67 72.31 17.34 74.62 17 77 C21.14670039 74.62370911 21.14670039 74.62370911 24 71 C23.9690625 69.7625 23.9690625 69.7625 23.9375 68.5 C24 66 24 66 26 64 C28.125 64.375 28.125 64.375 30 65 C30 65.66 30 66.32 30 67 C28.68 66.67 27.36 66.34 26 66 C26.70339566 68.50965614 26.70339566 68.50965614 28 71 C30.04105639 71.88693303 30.04105639 71.88693303 32 72 C31.855625 72.556875 31.71125 73.11375 31.5625 73.6875 C30.9370941 76.02217279 30.9370941 76.02217279 30.75 78.5625 C30 81 30 81 27.75 82.875 C24.61439583 84.15774716 23.18255804 84.00023253 20 83 C20 81.68 20 80.36 20 79 C19.2575 79 18.515 79 17.75 79 C10.5 79 10.5 79 7 78 C6.67 76.02 6.34 74.04 6 72 C5.0406581 73.27007214 4.08256706 74.54108919 3.125 75.8125 C2.32449219 76.87404297 2.32449219 76.87404297 1.5078125 77.95703125 C0.29185219 79.60456297 -0.86416141 81.29624211 -2 83 C-2.66 83 -3.32 83 -4 83 C-4 81.35 -4 79.7 -4 78 C-4.99 78.495 -4.99 78.495 -6 79 C-6 81.64 -6 84.28 -6 87 C-11.29230769 90.07692308 -11.29230769 90.07692308 -14.875 89.6875 C-15.57625 89.460625 -16.2775 89.23375 -17 89 C-16.61650903 85.64445399 -16.16918447 84.18908853 -13.875 81.625 C-11.58654304 79.03220019 -11.58654304 79.03220019 -12.375 75.3125 C-12.684375 73.6728125 -12.684375 73.6728125 -13 72 C-12.34 71.34 -11.68 70.68 -11 70 C-8.875 70.375 -8.875 70.375 -7 71 C-7 71.66 -7 72.32 -7 73 C-8.98 72.505 -8.98 72.505 -11 72 C-10.34 73.65 -9.68 75.3 -9 77 C-5.535 76.01 -5.535 76.01 -2 75 C-1.34 71.7 -0.68 68.4 0 65 C-2.11588542 65.52083333 -4.23177083 66.04166667 -6.34765625 66.5625 C-9.5920257 67.09765372 -12.71782852 67.06427753 -16 67 C-16.20496094 68.10859375 -16.40992188 69.2171875 -16.62109375 70.359375 C-16.89316462 71.82292867 -17.16530362 73.28646967 -17.4375 74.75 C-17.57220703 75.47960937 -17.70691406 76.20921875 -17.84570312 76.9609375 C-18.90587505 82.64966489 -18.90587505 82.64966489 -19.54101562 85.01367188 C-20.28296999 88.2245978 -20.10276246 91.47325536 -20.0625 94.75 C-20.05798828 95.44738281 -20.05347656 96.14476562 -20.04882812 96.86328125 C-20.0371002 98.57555803 -20.01916653 100.28779033 -20 102 C-21.98 101.01 -21.98 101.01 -24 100 C-24.66576476 89.3662573 -22.73779903 80.20563476 -20 70 C-22.31 70 -24.62 70 -27 70 C-27.61746094 71.16015625 -28.23492187 72.3203125 -28.87109375 73.515625 C-33.95190739 82.94087316 -39.12856429 91.74737118 -46 100 C-46.41330566 100.50225098 -46.82661133 101.00450195 -47.25244141 101.52197266 C-56.35151308 112.45523102 -68.3878718 123.75270911 -83.16748047 125.21435547 C-93.43853781 125.88762674 -103.47922235 126.10551759 -111.92578125 119.4921875 C-115.04331414 116.41048832 -116.38792809 113.83814738 -116.625 109.4375 C-116.05988589 102.17701218 -111.45866533 98.28096636 -106.24316406 93.77441406 C-102.76677125 91.02447687 -99.06056534 88.9557492 -95.125 86.9375 C-94.30056396 86.51122314 -93.47612793 86.08494629 -92.62670898 85.64575195 C-81.22000282 79.91466253 -69.25675908 76.49033035 -56.9375 73.3125 C-56.1021875 73.08860596 -55.266875 72.86471191 -54.40625 72.6340332 C-50.32217287 71.59512223 -46.63750137 70.89322711 -42.4140625 70.97265625 C-37.78558037 70.96136477 -33.87528693 70.73918663 -30 68 C-24.24742799 60.76796818 -21.1910345 51.6544168 -17.84490967 43.1239624 C-16.34707248 39.35864879 -14.76396602 35.62909917 -13.19140625 31.89453125 C-10.20797634 24.78215212 -7.29253357 17.64491857 -4.41943359 10.48730469 C-2.98839717 6.97149384 -1.50577145 3.48429159 0 0 Z M-43.55078125 72.3203125 C-45.4222583 72.74751587 -45.4222583 72.74751587 -47.33154297 73.18334961 C-48.65881824 73.49600626 -49.98579931 73.80991413 -51.3125 74.125 C-51.98573303 74.28372589 -52.65896606 74.44245178 -53.3526001 74.60598755 C-73.61012512 79.40848823 -97.34296439 85.63705673 -111.5625 101.9375 C-113.38716077 105.82482076 -113.94357592 108.78760749 -113 113 C-110.22524019 117.65443581 -106.95343907 120.29904933 -101.9140625 122.3046875 C-91.55300842 124.77689612 -80.47211666 123.88285296 -71 119 C-70.28199219 118.63390625 -69.56398437 118.2678125 -68.82421875 117.890625 C-51.81502006 107.81570658 -38.70311663 88.82465359 -31 71 C-35.40781845 70.85959451 -39.25583528 71.33972557 -43.55078125 72.3203125 Z " fill="#DBDBDB" transform="translate(216,204)"/>
<path d="M0 0 C0.66 0 1.32 0 2 0 C1.52073327 6.70973424 0.11410092 12.93936497 -1.62792969 19.4140625 C-2.51642949 22.77242874 -3 25.49371723 -3 29 C-1.68 27.68 -0.36 26.36 1 25 C1.66 25.33 2.32 25.66 3 26 C1.35 27.98 -0.3 29.96 -2 32 C-3.65 31.67 -5.3 31.34 -7 31 C-7.495 29.515 -7.495 29.515 -8 28 C-8.53625 28.969375 -9.0725 29.93875 -9.625 30.9375 C-12 34 -12 34 -15.0625 34.875 C-17.04031534 34.95916235 -19.02039479 35 -21 35 C-23.33564933 35.31669821 -25.6693782 35.64820803 -28 36 C-28.33 35.01 -28.66 34.02 -29 33 C-33.30886061 35.2414263 -36.40520059 37.3077847 -38.05859375 42.01171875 C-38.52272228 44.26942871 -38.95991451 46.53283037 -39.37109375 48.80078125 C-40.49476617 54.51685399 -42.41101607 58.48668197 -46.625 62.5 C-51.05213353 64.4676149 -55.21800192 64.91360032 -60 64 C-61.80078125 62.5859375 -61.80078125 62.5859375 -63 61 C-63 56.83331273 -59.70143315 53.8792501 -57 51 C-54.71120377 48.94536112 -52.31433458 47.05936833 -49.875 45.1875 C-49.25496094 44.69830078 -48.63492187 44.20910156 -47.99609375 43.70507812 C-45.35646214 41.65297742 -43.19477966 40.06492655 -40 39 C-40 38.34 -40 37.68 -40 37 C-43.86329472 37.38632947 -46.75509971 37.87754985 -50.25 39.625 C-51.61125 40.305625 -51.61125 40.305625 -53 41 C-53.99 40.67 -54.98 40.34 -56 40 C-55.67 38.68 -55.34 37.36 -55 36 C-54.01 36.33 -53.02 36.66 -52 37 C-48.0460352 34.8994562 -46.90943904 31.90189717 -45 28 C-42.09907498 26.06604999 -41.10325263 25.69868059 -37.8125 25.375 C-36.554375 25.25125 -35.29625 25.1275 -34 25 C-34.33 27.97 -34.66 30.94 -35 34 C-34.05125 33.34 -33.1025 32.68 -32.125 32 C-29 30 -29 30 -27 30 C-26.505 28.515 -26.505 28.515 -26 27 C-25.34 27 -24.68 27 -24 27 C-24 28.98 -24 30.96 -24 33 C-20.32467006 30.31800248 -18.26330924 27.90935232 -16 24 C-13 22 -13 22 -10.43652344 21.65234375 C-7.85502144 21.25969829 -7.85502144 21.25969829 -6.80566406 19.06640625 C-6.54495117 18.24011719 -6.28423828 17.41382813 -6.015625 16.5625 C-5.72042969 15.66789063 -5.42523438 14.77328125 -5.12109375 13.8515625 C-4.83363281 12.91054687 -4.54617188 11.96953125 -4.25 11 C-3.65291614 9.14522886 -3.05405306 7.29102922 -2.453125 5.4375 C-2.19692383 4.61121094 -1.94072266 3.78492188 -1.67675781 2.93359375 C-1 1 -1 1 0 0 Z " fill="#E2E2E2" transform="translate(357,231)"/>
<path d="M0 0 C0.99 0.495 0.99 0.495 2 1 C1.15404583 7.69222502 -0.52755627 13.9635736 -2.38354492 20.43603516 C-2.94134881 22.3884717 -3.48558084 24.34438099 -4.02929688 26.30078125 C-4.37927734 27.52925781 -4.72925781 28.75773437 -5.08984375 30.0234375 C-5.40816162 31.14669434 -5.72647949 32.26995117 -6.05444336 33.42724609 C-7 36 -7 36 -9 37 C-8.67 37.66 -8.34 38.32 -8 39 C-9.82724609 38.99033203 -9.82724609 38.99033203 -11.69140625 38.98046875 C-14.37274495 39.32205183 -15.60175047 39.56774867 -17.45263672 41.57666016 C-18.7474712 43.77476949 -19.85783741 46.00109007 -20.9375 48.3125 C-21.78497111 49.97088657 -22.63918729 51.62584299 -23.5 53.27734375 C-23.91894531 54.08800293 -24.33789062 54.89866211 -24.76953125 55.73388672 C-27.59100715 60.93010484 -31.22285211 65.46362641 -35 70 C-35.41330566 70.50225098 -35.82661133 71.00450195 -36.25244141 71.52197266 C-45.35151308 82.45523102 -57.3878718 93.75270911 -72.16748047 95.21435547 C-82.43853781 95.88762674 -92.47922235 96.10551759 -100.92578125 89.4921875 C-104.04331414 86.41048832 -105.38792809 83.83814738 -105.625 79.4375 C-105.05988589 72.17701218 -100.45866533 68.28096636 -95.24316406 63.77441406 C-91.76677125 61.02447687 -88.06056534 58.9557492 -84.125 56.9375 C-82.88834595 56.29808472 -82.88834595 56.29808472 -81.62670898 55.64575195 C-70.22000282 49.91466253 -58.25675908 46.49033035 -45.9375 43.3125 C-45.1021875 43.08860596 -44.266875 42.86471191 -43.40625 42.6340332 C-39.32217287 41.59512223 -35.63750137 40.89322711 -31.4140625 40.97265625 C-26.75409483 40.94891251 -22.84973859 40.86845163 -19 38 C-12.41832464 29.09724267 -8.74203353 18.18882195 -4.83056641 7.93408203 C-4.4804248 7.02899902 -4.1302832 6.12391602 -3.76953125 5.19140625 C-3.32444214 4.00526733 -3.32444214 4.00526733 -2.87036133 2.79516602 C-2 1 -2 1 0 0 Z M-32.55078125 42.3203125 C-34.4222583 42.74751587 -34.4222583 42.74751587 -36.33154297 43.18334961 C-37.65881824 43.49600626 -38.98579931 43.80991413 -40.3125 44.125 C-40.98573303 44.28372589 -41.65896606 44.44245178 -42.3526001 44.60598755 C-62.61012512 49.40848823 -86.34296439 55.63705673 -100.5625 71.9375 C-102.38716077 75.82482076 -102.94357592 78.78760749 -102 83 C-99.22524019 87.65443581 -95.95343907 90.29904933 -90.9140625 92.3046875 C-80.55300842 94.77689612 -69.47211666 93.88285296 -60 89 C-59.28199219 88.63390625 -58.56398437 88.2678125 -57.82421875 87.890625 C-40.81502006 77.81570658 -27.70311663 58.82465359 -20 41 C-24.40781845 40.85959451 -28.25583528 41.33972557 -32.55078125 42.3203125 Z " fill="#DEDEDE" transform="translate(205,234)"/>
<path d="M0 0 C0.99 0 1.98 0 3 0 C1.62419719 6.36829936 0.16901934 12.66513396 -1.8125 18.875 C-3.73881462 24.9480377 -5.3530294 31.07956561 -6.9375 37.25 C-9.41730059 46.90015621 -12.10777213 56.46588601 -15 66 C-14.01 66.33 -13.02 66.66 -12 67 C-13.32 67 -14.64 67 -16 67 C-16.30744141 68.66289062 -16.30744141 68.66289062 -16.62109375 70.359375 C-16.89316462 71.82292867 -17.16530362 73.28646967 -17.4375 74.75 C-17.57220703 75.47960937 -17.70691406 76.20921875 -17.84570312 76.9609375 C-18.90587505 82.64966489 -18.90587505 82.64966489 -19.54101562 85.01367188 C-20.28296999 88.2245978 -20.10276246 91.47325536 -20.0625 94.75 C-20.05798828 95.44738281 -20.05347656 96.14476562 -20.04882812 96.86328125 C-20.0371002 98.57555803 -20.01916653 100.28779033 -20 102 C-21.32 101.34 -22.64 100.68 -24 100 C-24.65377455 89.55776754 -23.76744117 77.53488235 -19 68 C-20.32 67.67 -21.64 67.34 -23 67 C-20.525 66.505 -20.525 66.505 -18 66 C-17.90976563 65.09636719 -17.81953125 64.19273437 -17.7265625 63.26171875 C-16.76536858 56.51468086 -14.38029566 50.0259928 -12.3515625 43.54101562 C-12.03703125 42.50267578 -11.7225 41.46433594 -11.3984375 40.39453125 C-11.10630371 39.45456299 -10.81416992 38.51459473 -10.51318359 37.54614258 C-9.81710578 34.09257666 -10.45473019 32.09053963 -12 29 C-11.22729492 26.54150391 -11.22729492 26.54150391 -9.98046875 23.4765625 C-9.53509766 22.373125 -9.08972656 21.2696875 -8.63085938 20.1328125 C-8.15455078 18.97523438 -7.67824219 17.81765625 -7.1875 16.625 C-6.72279297 15.47515625 -6.25808594 14.3253125 -5.77929688 13.140625 C-2.04430495 3.94514991 -2.04430495 3.94514991 0 0 Z " fill="#D0D0D0" transform="translate(216,204)"/>
<path d="M0 0 C-1.16147014 8.26897397 -1.16147014 8.26897397 -4.4375 11.125 C-7 12 -7 12 -10 11 C-10.33 9.35 -10.66 7.7 -11 6 C-9.68 6.33 -8.36 6.66 -7 7 C-7.33 6.34 -7.66 5.68 -8 5 C-9.32 5.33 -10.64 5.66 -12 6 C-11.87625 6.886875 -11.7525 7.77375 -11.625 8.6875 C-12.0340076 12.30040049 -12.26302548 12.66242935 -14.875 14.875 C-18 17 -18 17 -20 17 C-19.67 14.69 -19.34 12.38 -19 10 C-19.66 10 -20.32 10 -21 10 C-21.061875 10.61875 -21.12375 11.2375 -21.1875 11.875 C-22 14 -22 14 -24.5625 15.25 C-25.366875 15.4975 -26.17125 15.745 -27 16 C-27.33 13.69 -27.66 11.38 -28 9 C-30.92879371 9.62759865 -33.36095629 10.58622659 -36 12 C-35.4375 8.625 -35.4375 8.625 -34 5 C-28.99007239 2.75064475 -23.43866944 2.46863818 -18 2 C-18.33 3.65 -18.66 5.3 -19 7 C-18.34 7 -17.68 7 -17 7 C-16.67 5.35 -16.34 3.7 -16 2 C-14.27192682 1.66104344 -12.54248026 1.32908475 -10.8125 1 C-9.84957031 0.814375 -8.88664062 0.62875 -7.89453125 0.4375 C-5.2065794 0.03122388 -2.71228981 -0.07933572 0 0 Z " fill="#0F0F0F" transform="translate(253,264)"/>
<path d="M0 0 C0.495 0.99 0.495 0.99 1 2 C-0.70929688 2.34611328 -0.70929688 2.34611328 -2.453125 2.69921875 C-43.37556331 10.32764819 -43.37556331 10.32764819 -78 32 C-80.31053699 35.87447189 -80.68080685 39.57033466 -80 44 C-77.67195594 48.4536495 -74.29176108 50.29103436 -69.79296875 52.15234375 C-64.32671208 53.81133354 -58.66420248 54.38765379 -53 55 C-53 55.33 -53 55.66 -53 56 C-62.85611776 56.47309365 -71.79052783 56.82264841 -79.94140625 50.4921875 C-83.04049496 47.40028925 -84.38813526 44.8343017 -84.625 40.4375 C-84.05988589 33.17701218 -79.45866533 29.28096636 -74.24316406 24.77441406 C-70.76677125 22.02447687 -67.06056534 19.9557492 -63.125 17.9375 C-61.88834595 17.29808472 -61.88834595 17.29808472 -60.62670898 16.64575195 C-46.20464512 9.39965159 -30.65002461 5.6297092 -15 2 C-13.78026489 1.71310303 -13.78026489 1.71310303 -12.53588867 1.42041016 C-11.74287354 1.23784668 -10.9498584 1.0552832 -10.1328125 0.8671875 C-9.42398926 0.70331543 -8.71516602 0.53944336 -7.98486328 0.37060547 C-5.30414041 -0.12992803 -2.71661594 -0.13931364 0 0 Z " fill="#E3E3E3" transform="translate(184,273)"/>
<path d="M0 0 C1.32810201 3.98430603 0.11041441 6.62419089 -1.1875 10.4375 C-1.39697266 11.10587891 -1.60644531 11.77425781 -1.82226562 12.46289062 C-3.44882577 17.33291787 -5.3329138 20.6664569 -10 23 C-14.44909175 23.25183538 -18.09291273 23.29828663 -22 21 C-22.6328125 18.921875 -22.6328125 18.921875 -23 17 C-15.631374 10.73376687 -8.14544544 5.2170654 0 0 Z " fill="#060606" transform="translate(264,282)"/>
<path d="M0 0 C-0.35750465 7.72210047 -2.28082093 13.24940819 -6.8125 19.5 C-9.96398234 21.66101646 -12.26927506 21.40698817 -16 21 C-16.99 20.34 -17.98 19.68 -19 19 C-17.75206275 11.18305972 -8.66845062 5.77095348 -2.78515625 1.25 C-1 0 -1 0 0 0 Z " fill="#0A0A0A" transform="translate(316,272)"/>
<path d="M0 0 C0.99 0 1.98 0 3 0 C1.36245535 7.57984682 -0.54087824 14.9842438 -2.88671875 22.375 C-4.485253 27.58005187 -5.91274959 32.82977111 -7.33740234 38.0847168 C-8.89730627 43.79461255 -8.89730627 43.79461255 -10 46 C-10.66 46 -11.32 46 -12 46 C-11.38487182 40.99109914 -10.7282448 35.99367864 -10 31 C-10.66 31 -11.32 31 -12 31 C-9.8206242 24.25579982 -7.40290619 17.6207067 -4.875 11 C-4.51535156 10.04738281 -4.15570313 9.09476563 -3.78515625 8.11328125 C-3.44097656 7.20964844 -3.09679687 6.30601562 -2.7421875 5.375 C-2.4313623 4.55773437 -2.12053711 3.74046875 -1.80029297 2.8984375 C-1 1 -1 1 0 0 Z " fill="#EAEAEA" transform="translate(216,204)"/>
<path d="M0 0 C0.66 0.33 1.32 0.66 2 1 C-1.39033184 4.5831764 -4.78379778 7.34847323 -8.9375 10 C-13.21603783 12.78553388 -17.1870292 15.61069262 -21 19 C-20.67 20.32 -20.34 21.64 -20 23 C-15.48139848 24.44595249 -9.36535456 25.10183738 -5 23 C-3.78863521 20.94661406 -3.78863521 20.94661406 -3 18 C-2.61134766 16.73542969 -2.61134766 16.73542969 -2.21484375 15.4453125 C-1.46041456 12.96797757 -0.72417112 10.48632085 0 8 C0.99 8.33 1.98 8.66 3 9 C1.95331282 15.34838528 -0.52871212 21.52871212 -5.125 26.125 C-10.21420439 27.67388829 -16.07019115 28.29157604 -21.046875 26.09765625 C-22.6875 25 -22.6875 25 -25 23 C-24.70169559 19.71865147 -24.26217949 18.27418771 -21.953125 15.859375 C-21.06109375 15.16328125 -20.1690625 14.4671875 -19.25 13.75 C-18.26902344 12.98300781 -17.28804687 12.21601563 -16.27734375 11.42578125 C-10.96847986 7.4502159 -5.50269932 3.70054342 0 0 Z " fill="#D2D2D2" transform="translate(263,280)"/>
<path d="M0 0 C0.66 0 1.32 0 2 0 C1.52073327 6.70973424 0.11410092 12.93936497 -1.62792969 19.4140625 C-2.51642949 22.77242874 -3 25.49371723 -3 29 C-1.68 27.68 -0.36 26.36 1 25 C1.66 25.33 2.32 25.66 3 26 C1.35 27.98 -0.3 29.96 -2 32 C-3.65 31.67 -5.3 31.34 -7 31 C-7.33 30.01 -7.66 29.02 -8 28 C-8.33 28.66 -8.66 29.32 -9 30 C-9.99 29.67 -10.98 29.34 -12 29 C-11.5875 28.05125 -11.175 27.1025 -10.75 26.125 C-9.49735528 23.20411349 -8.29874238 20.2659412 -7.125 17.3125 C-4.81935707 11.51264629 -2.41309127 5.75581606 0 0 Z " fill="#ECECEC" transform="translate(357,231)"/>
<path d="M0 0 C2.125 0.375 2.125 0.375 4 1 C4 1.66 4 2.32 4 3 C2.68 2.67 1.36 2.34 0 2 C0.70339566 4.50965614 0.70339566 4.50965614 2 7 C4.04105639 7.88693303 4.04105639 7.88693303 6 8 C5.7834375 8.8353125 5.7834375 8.8353125 5.5625 9.6875 C4.9370941 12.02217279 4.9370941 12.02217279 4.75 14.5625 C4 17 4 17 1.75 18.875 C-1.38560417 20.15774716 -2.81744196 20.00023253 -6 19 C-6.8125 15.8125 -6.8125 15.8125 -7 12 C-4.5625 9.375 -4.5625 9.375 -2 7 C-1.74930087 4.37429296 -1.74930087 4.37429296 -2 2 C-1.34 1.34 -0.68 0.68 0 0 Z " fill="#EAEAEA" transform="translate(242,268)"/>
<path d="M0 0 C0.495 0.99 0.495 0.99 1 2 C-0.13953125 2.23074219 -1.2790625 2.46148437 -2.453125 2.69921875 C-20.38609672 6.37316019 -37.84956687 10.53526419 -55 17 C-55.66 16.34 -56.32 15.68 -57 15 C-43.10706016 9.03710104 -28.97011835 5.05962961 -14.25 1.6875 C-13.51160889 1.51589355 -12.77321777 1.34428711 -12.01245117 1.16748047 C-7.93699755 0.26807648 -4.17146722 -0.17709059 0 0 Z " fill="#D0D0D0" transform="translate(184,273)"/>
<path d="M0 0 C1.46981515 3.88064511 0.49787367 6.62258142 -0.65234375 10.515625 C-1.01650391 11.76601562 -1.38066406 13.01640625 -1.75585938 14.3046875 C-2.14952524 15.61985585 -2.54340822 16.93495922 -2.9375 18.25 C-3.32838395 19.58046215 -3.71836832 20.91118895 -4.10742188 22.2421875 C-5.06278723 25.4975065 -6.02729115 28.74982934 -7 32 C-10.465 32.495 -10.465 32.495 -14 33 C-12.00498545 26.4580025 -9.4385412 20.38916096 -6.4375 14.25 C-3.00038078 7.22165532 -3.00038078 7.22165532 0 0 Z " fill="#0A0A0A" transform="translate(205,238)"/>
<path d="M0 0 C2.125 0.375 2.125 0.375 4 1 C4 1.66 4 2.32 4 3 C2.68 2.67 1.36 2.34 0 2 C0.70339566 4.50965614 0.70339566 4.50965614 2 7 C4.04105639 7.88693303 4.04105639 7.88693303 6 8 C5.835 8.556875 5.67 9.11375 5.5 9.6875 C4.95958649 12.18691249 4.92917935 14.45045662 5 17 C-0.29230769 20.07692308 -0.29230769 20.07692308 -3.875 19.6875 C-4.57625 19.460625 -5.2775 19.23375 -6 19 C-5.61650903 15.64445399 -5.16918447 14.18908853 -2.875 11.625 C-0.58654304 9.03220019 -0.58654304 9.03220019 -1.375 5.3125 C-1.58125 4.219375 -1.7875 3.12625 -2 2 C-1.34 1.34 -0.68 0.68 0 0 Z " fill="#E0E0E0" transform="translate(205,274)"/>
<path d="M0 0 C-3.99516166 11.35879296 -16.26087312 17.92347449 -26.41015625 23.26953125 C-33.06303973 25.99286112 -40.02232205 24.82382257 -47 24 C-47 23.67 -47 23.34 -47 23 C-46.18917969 22.97421875 -45.37835938 22.9484375 -44.54296875 22.921875 C-27.9684931 22.07289138 -17.17863567 15.75445252 -5.98461914 3.96289062 C-2.19601075 0 -2.19601075 0 0 0 Z " fill="#D5D5D5" transform="translate(168,304)"/>
<path d="M0 0 C0.33 0.66 0.66 1.32 1 2 C1.66 2.33 2.32 2.66 3 3 C2.01 3.33 1.02 3.66 0 4 C-1.18928057 5.60102632 -1.18928057 5.60102632 -2.1640625 7.61328125 C-2.55972412 8.36174316 -2.95538574 9.11020508 -3.36303711 9.88134766 C-3.77948486 10.68362793 -4.19593262 11.4859082 -4.625 12.3125 C-8.72767079 19.94965091 -12.95612596 27.69657309 -19 34 C-19.99 34 -20.98 34 -22 34 C-18.97549456 28.61088122 -15.73680494 23.42009765 -12.35546875 18.25 C-7.18061859 11.1133312 -7.18061859 11.1133312 -5 3 C-2.5 1.3125 -2.5 1.3125 0 0 Z " fill="#E0E0E0" transform="translate(189,270)"/>
<path d="M0 0 C0.8353125 0.37125 0.8353125 0.37125 1.6875 0.75 C1.6875 3.06 1.6875 5.37 1.6875 7.75 C3.0075 7.42 4.3275 7.09 5.6875 6.75 C6.0175 7.41 6.3475 8.07 6.6875 8.75 C4.33311267 10.17944945 3.20717567 10.83661261 0.4375 10.375 C-0.14 10.16875 -0.7175 9.9625 -1.3125 9.75 C-1.6425 7.77 -1.9725 5.79 -2.3125 3.75 C-3.2718419 5.02007214 -4.22993294 6.29108919 -5.1875 7.5625 C-5.72117188 8.27019531 -6.25484375 8.97789062 -6.8046875 9.70703125 C-8.02064781 11.35456297 -9.17666141 13.04624211 -10.3125 14.75 C-10.9725 14.75 -11.6325 14.75 -12.3125 14.75 C-12.3125 12.08333333 -12.3125 9.41666667 -12.3125 6.75 C-11.6525 6.75 -10.9925 6.75 -10.3125 6.75 C-10.18875 6.110625 -10.065 5.47125 -9.9375 4.8125 C-9.73125 4.131875 -9.525 3.45125 -9.3125 2.75 C-8.6525 2.42 -7.9925 2.09 -7.3125 1.75 C-7.3125 2.41 -7.3125 3.07 -7.3125 3.75 C-6.57 3.069375 -5.8275 2.38875 -5.0625 1.6875 C-2.3125 -0.25 -2.3125 -0.25 0 0 Z " fill="#E4E4E4" transform="translate(261.3125,266.25)"/>
<path d="M0 0 C0.66 0 1.32 0 2 0 C2.23509196 4.81938524 1.45184478 8.46298506 0 13 C2.475 13.495 2.475 13.495 5 14 C5 14.33 5 14.66 5 15 C4.05125 15.103125 3.1025 15.20625 2.125 15.3125 C-1.29107501 15.68539295 -1.29107501 15.68539295 -3 19 C-3.66 18.67 -4.32 18.34 -5 18 C-5 17.34 -5 16.68 -5 16 C-5.83144531 16.16757812 -6.66289062 16.33515625 -7.51953125 16.5078125 C-8.60621094 16.71148437 -9.69289062 16.91515625 -10.8125 17.125 C-11.89144531 17.33382813 -12.97039062 17.54265625 -14.08203125 17.7578125 C-17 18 -17 18 -20 16 C-18.27192682 15.66104344 -16.54248026 15.32908475 -14.8125 15 C-13.84957031 14.814375 -12.88664063 14.62875 -11.89453125 14.4375 C-9.2065794 14.03122388 -6.71228981 13.92066428 -4 14 C-3.79503906 13.15695312 -3.59007812 12.31390625 -3.37890625 11.4453125 C-3.10949219 10.34960938 -2.84007812 9.25390625 -2.5625 8.125 C-2.29566406 7.03445313 -2.02882812 5.94390625 -1.75390625 4.8203125 C-1 2 -1 2 0 0 Z " fill="#BEBEBE" transform="translate(221,253)"/>
<path d="M0 0 C0.66 0 1.32 0 2 0 C1.40298507 5.37313433 1.40298507 5.37313433 -0.125 7.75 C-2.88449474 9.58966316 -5.80541459 10.17381412 -9 11 C-10.67632417 11.64199649 -12.34750513 12.29894157 -14 13 C-14.33 11.68 -14.66 10.36 -15 9 C-13.68 9 -12.36 9 -11 9 C-8.97543152 7.70427617 -6.97321053 6.3726682 -5 5 C-4.34 5 -3.68 5 -3 5 C-2.690625 4.360625 -2.38125 3.72125 -2.0625 3.0625 C-1 1 -1 1 0 0 Z " fill="#E1E1E1" transform="translate(316,259)"/>
<path d="M0 0 C0.66 0.33 1.32 0.66 2 1 C-1.39033184 4.5831764 -4.78379778 7.34847323 -8.9375 10 C-16.97268092 14.69534916 -16.97268092 14.69534916 -22 22 C-22.66 22 -23.32 22 -24 22 C-23.78285525 18.30195907 -23.16128103 17.15130739 -20.41015625 14.5703125 C-19.304832 13.74094324 -18.18823506 12.92644597 -17.0625 12.125 C-16.48218018 11.69590332 -15.90186035 11.26680664 -15.30395508 10.82470703 C-13.54731308 9.53317893 -11.77695743 8.26339171 -10 7 C-8.98164063 6.27296875 -7.96328125 5.5459375 -6.9140625 4.796875 C-4.62075151 3.18038645 -2.31826977 1.58040061 0 0 Z " fill="#DDDDDD" transform="translate(263,280)"/>
<path d="M0 0 C0.66 0 1.32 0 2 0 C1.67 2.97 1.34 5.94 1 9 C1.66 9 2.32 9 3 9 C3 9.66 3 10.32 3 11 C2.53980469 11.43957031 2.07960938 11.87914062 1.60546875 12.33203125 C-0.33298289 14.34594573 -0.87814366 16.02818631 -1.6875 18.6875 C-2.06455078 19.89986328 -2.06455078 19.89986328 -2.44921875 21.13671875 C-2.63097656 21.75160156 -2.81273437 22.36648438 -3 23 C-3.66 23 -4.32 23 -5 23 C-5.31560349 17.00353362 -4.5680117 13.53110213 -2 8 C-1.2284455 5.34865817 -0.61444473 2.6941038 0 0 Z " fill="#F1F1F1" transform="translate(269,266)"/>
<path d="M0 0 C-3.11832947 7.87006961 -3.11832947 7.87006961 -6 10 C-6.66 10 -7.32 10 -8 10 C-8.33 9.34 -8.66 8.68 -9 8 C-9.99 8 -10.98 8 -12 8 C-11.04663979 6.68388323 -10.08714226 5.37221039 -9.125 4.0625 C-8.59132813 3.33160156 -8.05765625 2.60070312 -7.5078125 1.84765625 C-4.97993263 -1.24997893 -3.63337773 -1.09001332 0 0 Z " fill="#D2D2D2" transform="translate(348,254)"/>
<path d="M0 0 C0 6.93 0 13.86 0 21 C-1.32 20.34 -2.64 19.68 -4 19 C-4.02717692 16.93757383 -4.0464758 14.87504297 -4.0625 12.8125 C-4.07410156 11.66394531 -4.08570313 10.51539063 -4.09765625 9.33203125 C-4.01127783 6.38479964 -3.82198363 3.82783048 -3 1 C-1 0 -1 0 0 0 Z " fill="#DADADA" transform="translate(196,285)"/>
<path d="M0 0 C0.33 0.66 0.66 1.32 1 2 C-2.0202423 2.64870339 -5.04113979 3.29404156 -8.0625 3.9375 C-8.91005859 4.11990234 -9.75761719 4.30230469 -10.63085938 4.49023438 C-13.08404779 5.01118172 -15.54000009 5.51229875 -18 6 C-18.68562012 6.13937988 -19.37124023 6.27875977 -20.07763672 6.42236328 C-23.81940996 7.09078318 -24.69307307 7.20461795 -28 5 C-24.46082426 4.15584238 -20.91830859 3.32662306 -17.375 2.5 C-16.37597656 2.26152344 -15.37695312 2.02304687 -14.34765625 1.77734375 C-9.48858446 0.65106883 -5.02675656 -0.34312331 0 0 Z " fill="#D0D0D0" transform="translate(184,273)"/>
<path d="M0 0 C0.33 0.66 0.66 1.32 1 2 C1.66 2 2.32 2 3 2 C0.75018699 14.11069559 0.75018699 14.11069559 -1 18 C-3.0703125 19.15625 -3.0703125 19.15625 -5 20 C-3.33333333 13.33333333 -1.66666667 6.66666667 0 0 Z " fill="#D4D4D4" transform="translate(203,248)"/>
<path d="M0 0 C-1 3 -1 3 -3.44921875 4.421875 C-12.07053225 7.9577575 -18.81689527 8.39054509 -28 7 C-28 6.67 -28 6.34 -28 6 C-27.18917969 5.97421875 -26.37835938 5.9484375 -25.54296875 5.921875 C-16.77244912 5.47262836 -8.05885654 0 0 0 Z " fill="#CFCFCF" transform="translate(149,321)"/>
<path d="M0 0 C0.433125 0.9590625 0.433125 0.9590625 0.875 1.9375 C1.82823451 4.15206079 1.82823451 4.15206079 4 5 C5.37342831 5.0689472 6.75002102 5.08467708 8.125 5.0625 C9.40375 5.041875 10.6825 5.02125 12 5 C11.67 5.99 11.34 6.98 11 8 C9.39667209 8.08121924 7.79215974 8.13929134 6.1875 8.1875 C5.29417969 8.22230469 4.40085937 8.25710938 3.48046875 8.29296875 C1 8 1 8 -0.83984375 6.62109375 C-2 5 -2 5 -1.75 2.875 C-1 1 -1 1 0 0 Z " fill="#E9E9E9" transform="translate(296,287)"/>
<path d="M0 0 C0.33 0.66 0.66 1.32 1 2 C1.66 2.33 2.32 2.66 3 3 C2.01 3.33 1.02 3.66 0 4 C-1.45644757 6.08812458 -1.45644757 6.08812458 -2.6875 8.5625 C-3.12449219 9.38878906 -3.56148437 10.21507812 -4.01171875 11.06640625 C-4.50091797 12.02353516 -4.50091797 12.02353516 -5 13 C-5.66 12.67 -6.32 12.34 -7 12 C-5.82713348 3.64989059 -5.82713348 3.64989059 -2.375 0.9375 C-1.199375 0.4734375 -1.199375 0.4734375 0 0 Z " fill="#F3F3F3" transform="translate(189,270)"/>
<path d="M0 0 C0.66 0.66 1.32 1.32 2 2 C1.01 3.98 0.02 5.96 -1 8 C1.97 8.495 1.97 8.495 5 9 C5 9.33 5 9.66 5 10 C3.906875 9.835 2.81375 9.67 1.6875 9.5 C-1.87525873 8.93281816 -1.87525873 8.93281816 -5 9 C-3.90931332 5.22454612 -3.0916909 2.52956528 0 0 Z " fill="#CFCFCF" transform="translate(192,263)"/>
<path d="M0 0 C0.33 0.99 0.66 1.98 1 3 C1.598125 2.484375 2.19625 1.96875 2.8125 1.4375 C3.8953125 0.7259375 3.8953125 0.7259375 5 0 C5.99 0.33 6.98 0.66 8 1 C6.375 3.0625 6.375 3.0625 4 5 C0.875 4.6875 0.875 4.6875 -2 4 C-2.99 4.495 -2.99 4.495 -4 5 C-4.66 4.34 -5.32 3.68 -6 3 C-4.02 2.01 -2.04 1.02 0 0 Z " fill="#DCDCDC" transform="translate(339,261)"/>
<path d="M0 0 C0.99 0.33 1.98 0.66 3 1 C2.33501617 5.38889325 0.81242323 8.9811485 -1 13 C-1.66 12.67 -2.32 12.34 -3 12 C-2.01 8.04 -1.02 4.08 0 0 Z " fill="#E0E0E0" transform="translate(263,288)"/>
<path d="M0 0 C0.103125 0.639375 0.20625 1.27875 0.3125 1.9375 C0.539375 2.618125 0.76625 3.29875 1 4 C1.99 4.33 2.98 4.66 4 5 C2.68 5 1.36 5 0 5 C-0.33 6.65 -0.66 8.3 -1 10 C-1.66 10 -2.32 10 -3 10 C-3 8.68 -3 7.36 -3 6 C-4.32 5.67 -5.64 5.34 -7 5 C-5.824375 4.87625 -5.824375 4.87625 -4.625 4.75 C-1.85250896 4.27193661 -1.85250896 4.27193661 -0.6875 1.9375 C-0.460625 1.298125 -0.23375 0.65875 0 0 Z " fill="#F9F9F9" transform="translate(200,266)"/>
<path d="M0 0 C0.66 0 1.32 0 2 0 C1.67 2.31 1.34 4.62 1 7 C1.99 7.33 2.98 7.66 4 8 C3 9 3 9 0.4375 9.0625 C-0.366875 9.041875 -1.17125 9.02125 -2 9 C-2 7.68 -2 6.36 -2 5 C-2.66 4.67 -3.32 4.34 -4 4 C-3.01 3.67 -2.02 3.34 -1 3 C-0.67 2.01 -0.34 1.02 0 0 Z " fill="#EAEAEA" transform="translate(331,258)"/>
<path d="M0 0 C0.99 0.33 1.98 0.66 3 1 C1.8553125 2.36125 1.8553125 2.36125 0.6875 3.75 C-0.856057 5.59005948 -2.29436301 7.41428868 -3.6875 9.375 C-4.120625 9.91125 -4.55375 10.4475 -5 11 C-5.66 11 -6.32 11 -7 11 C-5.72278474 6.00724943 -3.82669043 3.42388092 0 0 Z " fill="#EAEAEA" transform="translate(107,300)"/>
<path d="M0 0 C2.625 0.375 2.625 0.375 5 1 C5 1.66 5 2.32 5 3 C3.8553125 3.1546875 3.8553125 3.1546875 2.6875 3.3125 C-0.29123061 4.07450085 -0.9368354 4.85087021 -3 7 C-5.6875 8.1875 -5.6875 8.1875 -8 9 C-7.04270084 7.87411986 -6.08412105 6.7493285 -5.125 5.625 C-4.59132813 4.99851562 -4.05765625 4.37203125 -3.5078125 3.7265625 C-2.38567993 2.44163349 -1.20628025 1.20628025 0 0 Z " fill="#DCDCDC" transform="translate(283,263)"/>
<path d="M0 0 C0.66 0.33 1.32 0.66 2 1 C0.35 2.98 -1.3 4.96 -3 7 C-4.65 6.67 -6.3 6.34 -8 6 C-8.33 4.35 -8.66 2.7 -9 1 C-8.01 1.33 -7.02 1.66 -6 2 C-6 2.99 -6 3.98 -6 5 C-4.02 3.35 -2.04 1.7 0 0 Z " fill="#DFDFDF" transform="translate(358,256)"/>
<path d="M0 0 C-0.30618405 3.67420866 -0.75771784 4.78135513 -3.5625 7.3125 C-4.366875 7.869375 -5.17125 8.42625 -6 9 C-5.6875 5.625 -5.6875 5.625 -5 2 C-2 0 -2 0 0 0 Z " fill="#0D0D0D" transform="translate(347,255)"/>
<path d="M0 0 C1 3 1 3 0.22265625 5.04296875 C-0.16019531 5.75066406 -0.54304687 6.45835937 -0.9375 7.1875 C-1.31777344 7.90292969 -1.69804687 8.61835938 -2.08984375 9.35546875 C-2.54037109 10.16951172 -2.54037109 10.16951172 -3 11 C-3.99 11 -4.98 11 -6 11 C-4.74194623 6.49197399 -3.09592835 3.5087188 0 0 Z " fill="#EEEEEE" transform="translate(197,253)"/>
<path d="M0 0 C0.66 0 1.32 0 2 0 C2.19622241 4.21878192 1.80230168 7.17010894 0 11 C-0.66 11 -1.32 11 -2 11 C-1.85892253 9.54119891 -1.71197585 8.08296449 -1.5625 6.625 C-1.48128906 5.81289063 -1.40007812 5.00078125 -1.31640625 4.1640625 C-1 2 -1 2 0 0 Z " fill="#DCDCDC" transform="translate(221,253)"/>
<path d="M0 0 C1.25127906 3.54667178 0.72285053 5.72253438 -0.4375 9.25 C-0.72496094 10.14203125 -1.01242188 11.0340625 -1.30859375 11.953125 C-1.53675781 12.62859375 -1.76492187 13.3040625 -2 14 C-2.99 14 -3.98 14 -5 14 C-4.34580901 8.93001981 -2.1453591 4.58009223 0 0 Z " fill="#1F1F1F" transform="translate(205,238)"/>
<path d="M0 0 C-3.96 1.65 -7.92 3.3 -12 5 C-12.66 4.34 -13.32 3.68 -14 3 C-12.42274653 2.29866401 -10.83788667 1.614417 -9.25 0.9375 C-7.92742187 0.36322266 -7.92742187 0.36322266 -6.578125 -0.22265625 C-4 -1 -4 -1 0 0 Z " fill="#D8D8D8" transform="translate(141,285)"/>
<path d="M0 0 C0.33 0.66 0.66 1.32 1 2 C0.67 2.99 0.34 3.98 0 5 C0.66 5 1.32 5 2 5 C2 5.66 2 6.32 2 7 C1.21625 6.835 0.4325 6.67 -0.375 6.5 C-3.81917573 5.82086554 -3.81917573 5.82086554 -7 7 C-5.54744301 3.17053157 -3.57104439 1.87949705 0 0 Z " fill="#E9E9E9" transform="translate(279,269)"/>
<path d="M0 0 C-0.25 2.875 -0.25 2.875 -1 6 C-3.0625 7.375 -3.0625 7.375 -5 8 C-5.36625971 3.48279689 -5.36625971 3.48279689 -3.625 1.1875 C-2 0 -2 0 0 0 Z " fill="#0A0A0A" transform="translate(318,259)"/>
<path d="M0 0 C0.66 0 1.32 0 2 0 C1.85892253 1.45880109 1.71197585 2.91703551 1.5625 4.375 C1.48128906 5.18710938 1.40007812 5.99921875 1.31640625 6.8359375 C1 9 1 9 0 11 C-0.66 11 -1.32 11 -2 11 C-1.125 3.375 -1.125 3.375 0 0 Z " fill="#F0F0F0" transform="translate(206,239)"/>
<path d="M0 0 C-0.34879632 3.25543229 -1.02133261 4.01873107 -3.5625 6.25 C-4.366875 6.8275 -5.17125 7.405 -6 8 C-6.33 6.68 -6.66 5.36 -7 4 C-2.25 0 -2.25 0 0 0 Z " fill="#BCBCBC" transform="translate(242,276)"/>
<path d="M0 0 C0.66 0 1.32 0 2 0 C1.67 2.31 1.34 4.62 1 7 C1.66 7 2.32 7 3 7 C3 7.66 3 8.32 3 9 C1.68 9 0.36 9 -1 9 C-1.80967438 6.08517222 -2.21845993 4.53886783 -1.0625 1.6875 C-0.711875 1.130625 -0.36125 0.57375 0 0 Z " fill="#F4F4F4" transform="translate(232,274)"/>
<path d="M0 0 C2 3 2 3 2 5 C3.65 4.67 5.3 4.34 7 4 C7.33 4.66 7.66 5.32 8 6 C5.64561267 7.42944945 4.51967567 8.08661261 1.75 7.625 C1.1725 7.41875 0.595 7.2125 0 7 C0 4.69 0 2.38 0 0 Z " fill="#D9D9D9" transform="translate(260,269)"/>
<path d="M0 0 C-0.33 1.98 -0.66 3.96 -1 6 C-1.66 6 -2.32 6 -3 6 C-2.67 4.35 -2.34 2.7 -2 1 C-2.515625 1.165 -3.03125 1.33 -3.5625 1.5 C-6.73363876 2.15049 -9.77218334 2.0620734 -13 2 C-13 1.67 -13 1.34 -13 1 C-8.60563789 0.14256349 -4.47427924 -0.08948558 0 0 Z " fill="#E4E4E4" transform="translate(237,265)"/>
<path d="M0 0 C-3.83542457 2.55694972 -5.65902533 2.04045639 -10.1875 1.625 C-12.09595703 1.45871094 -12.09595703 1.45871094 -14.04296875 1.2890625 C-15.01878906 1.19367188 -15.99460937 1.09828125 -17 1 C-17 0.67 -17 0.34 -17 0 C-14.9174133 -0.19561869 -12.83388144 -0.38119313 -10.75 -0.5625 C-9.58984375 -0.66691406 -8.4296875 -0.77132813 -7.234375 -0.87890625 C-4.48128523 -0.98198087 -2.580018 -0.86213473 0 0 Z " fill="#ADADAD" transform="translate(138,327)"/>
<path d="M0 0 C-4.0964343 2.23608494 -7.35158318 2.70486242 -12 3 C-12.99 2.34 -13.98 1.68 -15 1 C-10.03926578 -0.32286246 -5.08888488 -0.08893197 0 0 Z " fill="#CECECE" transform="translate(216,268)"/>
<path d="M0 0 C0.99 0.66 1.98 1.32 3 2 C-0.625 6.875 -0.625 6.875 -4 8 C-3.40072174 4.64404172 -2.15377564 2.62198774 0 0 Z " fill="#D6D6D6" transform="translate(312,286)"/>
<path d="M0 0 C0.99 0 1.98 0 3 0 C3 1.65 3 3.3 3 5 C2.34 4.01 1.68 3.02 1 2 C0.01 2.495 0.01 2.495 -1 3 C-0.67 2.01 -0.34 1.02 0 0 Z M-2 3 C-1.01 3.33 -0.02 3.66 1 4 C-0.25541557 6.51083114 -1.50063488 6.87125446 -4 8 C-4 5 -4 5 -2 3 Z " fill="#D6D6D6" transform="translate(285,267)"/>
<path d="M0 0 C0.66 0.33 1.32 0.66 2 1 C-1.625 6.75 -1.625 6.75 -5 9 C-4.42647107 5.12867972 -2.51295648 2.91827204 0 0 Z " fill="#323232" transform="translate(284,265)"/>
<path d="M0 0 C0.33 0.66 0.66 1.32 1 2 C1.66 2 2.32 2 3 2 C2.75 4.375 2.75 4.375 2 7 C0.02 7.99 0.02 7.99 -2 9 C-1.34 6.03 -0.68 3.06 0 0 Z " fill="#C5C5C5" transform="translate(200,259)"/>
<path d="M0 0 C0.99 0 1.98 0 3 0 C2.1875 2.9375 2.1875 2.9375 1 6 C0.01 6.33 -0.98 6.66 -2 7 C-1.125 1.125 -1.125 1.125 0 0 Z " fill="#DCDCDC" transform="translate(216,204)"/>
<path d="M0 0 C0.33 0 0.66 0 1 0 C1.66 2.97 2.32 5.94 3 9 C1.68 8.34 0.36 7.68 -1 7 C-1.04254356 5.00045254 -1.04080783 2.99958364 -1 1 C-0.67 0.67 -0.34 0.34 0 0 Z " fill="#EFEFEF" transform="translate(193,297)"/>
<path d="M0 0 C2.125 0.375 2.125 0.375 4 1 C4 1.66 4 2.32 4 3 C2.68 2.67 1.36 2.34 0 2 C0 3.65 0 5.3 0 7 C-0.66 7 -1.32 7 -2 7 C-2.125 4.625 -2.125 4.625 -2 2 C-1.34 1.34 -0.68 0.68 0 0 Z " fill="#E2E2E2" transform="translate(205,274)"/>
<path d="M0 0 C2.125 0.375 2.125 0.375 4 1 C4 1.66 4 2.32 4 3 C2.68 2.67 1.36 2.34 0 2 C0 3.65 0 5.3 0 7 C-0.66 7 -1.32 7 -2 7 C-2.125 4.625 -2.125 4.625 -2 2 C-1.34 1.34 -0.68 0.68 0 0 Z " fill="#E2E2E2" transform="translate(242,268)"/>
<path d="M0 0 C0.66 0 1.32 0 2 0 C1.75 2.875 1.75 2.875 1 6 C-1.0625 7.375 -1.0625 7.375 -3 8 C-1.125 1.125 -1.125 1.125 0 0 Z " fill="#E1E1E1" transform="translate(357,231)"/>
<path d="M0 0 C0.33 1.32 0.66 2.64 1 4 C-0.98 4.33 -2.96 4.66 -5 5 C-4.625 3.0625 -4.625 3.0625 -4 1 C-2 0 -2 0 0 0 Z " fill="#CCCCCC" transform="translate(313,264)"/>
<path d="M0 0 C0.33 0.66 0.66 1.32 1 2 C-0.65 3.65 -2.3 5.3 -4 7 C-4.33 6.34 -4.66 5.68 -5 5 C-3.35 3.35 -1.7 1.7 0 0 Z " fill="#E4E4E4" transform="translate(172,298)"/>
<path d="M0 0 C0.66 0 1.32 0 2 0 C2 1.32 2 2.64 2 4 C0.02 4.33 -1.96 4.66 -4 5 C-2.71937515 3.2925002 -1.38232443 1.62626404 0 0 Z " fill="#202020" transform="translate(205,286)"/>
<path d="M0 0 C0.66 0 1.32 0 2 0 C1.1875 2.9375 1.1875 2.9375 0 6 C-0.99 6.33 -1.98 6.66 -3 7 C-2.25 2.25 -2.25 2.25 0 0 Z " fill="#E6E6E6" transform="translate(202,286)"/>
<path d="M0 0 C1.60031344 3.20062687 0.03173691 5.72271806 -1 9 C-2.38111722 6.7252187 -3.05694702 5.49828639 -2.75 2.8125 C-2 1 -2 1 0 0 Z " fill="#1D1D1D" transform="translate(212,281)"/>
<path d="M0 0 C0.66 0 1.32 0 2 0 C2 1.32 2 2.64 2 4 C0.02 4.33 -1.96 4.66 -4 5 C-2.71937515 3.2925002 -1.38232443 1.62626404 0 0 Z " fill="#202020" transform="translate(242,280)"/>
<path d="M0 0 C1.60031344 3.20062687 0.03173691 5.72271806 -1 9 C-2.38111722 6.7252187 -3.05694702 5.49828639 -2.75 2.8125 C-2 1 -2 1 0 0 Z " fill="#1D1D1D" transform="translate(249,275)"/>
<path d="M0 0 C-2.75924185 1.80411967 -3.88972103 2.0127245 -7.25 1.625 C-8.1575 1.41875 -9.065 1.2125 -10 1 C-6.42181037 -1.33958553 -4.07775191 -0.9267618 0 0 Z " fill="#B2B2B2" transform="translate(166,278)"/>
<path d="M0 0 C0.66 0 1.32 0 2 0 C2 1.98 2 3.96 2 6 C0.68 6.33 -0.64 6.66 -2 7 C-1.34 4.69 -0.68 2.38 0 0 Z " fill="#CACACA" transform="translate(258,247)"/>
</svg>
